/* XPM */
static char *_605c17bc255481ca6a5e7ae522b249cXryQ9EZJiABf09Dt[] = {
/* columns rows colors chars-per-pixel */
"64 64 208 2 ",
"   c None",
".  c #00002C",
"X  c #000024",
"o  c #000033",
"O  c #00003B",
"+  c #000043",
"@  c #00004B",
"#  c #000053",
"$  c #00005C",
"%  c #15155F",
"&  c #000062",
"*  c #01016B",
"=  c #0A0A6C",
"-  c #0A0B64",
";  c #100F6F",
":  c #08126B",
">  c #1C1B6C",
",  c #141469",
"<  c #000075",
"1  c #01017F",
"2  c #0C0D78",
"3  c #001C71",
"4  c #111173",
"5  c #12127B",
"6  c #0B2578",
"7  c #0A2D7E",
"8  c #132D7D",
"9  c #192E7E",
"0  c #112778",
"q  c #0D327F",
"w  c #11307F",
"e  c #1C337F",
"r  c #22237C",
"t  c #27287A",
"y  c #36357E",
"u  c #42427F",
"i  c #040485",
"p  c #0B0B85",
"a  c #0D0C8C",
"s  c #08078D",
"d  c #181788",
"f  c #000091",
"g  c #132F80",
"h  c #0E3281",
"j  c #003E89",
"k  c #153481",
"l  c #1B3482",
"z  c #133985",
"x  c #1E3A86",
"c  c #133E88",
"v  c #1D3E88",
"b  c #272785",
"n  c #2D2D82",
"m  c #26258B",
"M  c #29298E",
"N  c #233B85",
"B  c #233E88",
"V  c #2A3E89",
"C  c #293783",
"Z  c #313185",
"A  c #34338C",
"S  c #3D3C8A",
"D  c #3A3A84",
"F  c #343493",
"G  c #33339B",
"H  c #3A3A99",
"J  c #2D2CA2",
"K  c #3232A1",
"L  c #393AA1",
"P  c #03458E",
"I  c #14428B",
"U  c #1C438C",
"Y  c #1C498E",
"T  c #11488E",
"R  c #154D92",
"E  c #1B4D93",
"W  c #0E5496",
"Q  c #06599A",
"!  c #0C5C9C",
"~  c #065498",
"^  c #1D5395",
"/  c #145699",
"(  c #1B5598",
")  c #145B9B",
"_  c #1C5C9B",
"`  c #185695",
"'  c #24438B",
"]  c #2E468C",
"[  c #264B8F",
"{  c #2E4A8F",
"}  c #2F4187",
"|  c #31468C",
" . c #32498E",
".. c #3A4E8F",
"X. c #254D92",
"o. c #2E4D91",
"O. c #314D91",
"+. c #245195",
"@. c #2F5495",
"#. c #225698",
"$. c #2C5798",
"%. c #245B9B",
"&. c #2E5C9B",
"*. c #2C5897",
"=. c #315394",
"-. c #3B5394",
";. c #305897",
":. c #3D5A96",
">. c #305798",
",. c #315B9A",
"<. c #3A5D9A",
"1. c #1C629F",
"2. c #23619D",
"3. c #2E629E",
"4. c #32629E",
"5. c #3B679F",
"6. c #1563A1",
"7. c #1B66A3",
"8. c #176AA4",
"9. c #1B6AA5",
"0. c #1D6FA9",
"q. c #1C71A9",
"w. c #2465A2",
"e. c #2D65A1",
"r. c #236BA5",
"t. c #2E6BA4",
"y. c #266FA8",
"u. c #3065A1",
"i. c #316DA5",
"p. c #306FA8",
"a. c #2D72A7",
"s. c #2474AB",
"d. c #2E74AA",
"f. c #2E79AE",
"g. c #3D72A6",
"h. c #3174AA",
"j. c #317AAD",
"k. c #3A7AAD",
"l. c #317DB0",
"z. c #44438F",
"x. c #454582",
"c. c #56568D",
"v. c #454493",
"b. c #4B4B94",
"n. c #46479D",
"m. c #425693",
"M. c #445D9A",
"N. c #4E5E99",
"B. c #4B5C97",
"V. c #525295",
"C. c #5D5C9C",
"Z. c #56589C",
"A. c #43649D",
"S. c #49649D",
"D. c #41689F",
"F. c #54669E",
"G. c #646499",
"H. c #4948AA",
"J. c #5253A3",
"K. c #5C5CA6",
"L. c #446FA5",
"P. c #4F6CA3",
"I. c #4366A0",
"U. c #556CA3",
"Y. c #5C6CA3",
"T. c #4B77A9",
"R. c #447AAB",
"E. c #4B7EAE",
"W. c #4871A4",
"Q. c #527BAD",
"!. c #5B7DAD",
"~. c #5771A6",
"^. c #4D7BB0",
"/. c #6464A4",
"(. c #6A67A2",
"). c #6968A2",
"_. c #6E6DA4",
"`. c #6262AB",
"'. c #6969A8",
"]. c #6277A9",
"[. c #647CAD",
"{. c #6B7EAC",
"}. c #7473A6",
"|. c #7474A6",
" X c #7675A9",
".X c #696AB0",
"XX c #7474B0",
"oX c #707FB1",
"OX c #3F85B3",
"+X c #4982AE",
"@X c #5383AD",
"#X c #4384B3",
"$X c #4E87B3",
"%X c #4F8BB8",
"&X c #5584B1",
"*X c #5D86B5",
"=X c #518AB4",
"-X c #5B8AB5",
";X c #568EBA",
":X c #5991B9",
">X c #6A87B3",
",X c #728CB8",
"<X c #6B97BC",
"1X c #629ABF",
"2X c #6591BB",
"3X c #749FC3",
"4X c #75A5C9",
"5X c #8CA2C7",
/* pixels */
"                                                                                                                                ",
"                                                                                                                                ",
"                                                                                                                                ",
"                                                                                                                                ",
"                                                                        O.C                                                     ",
"                                                                      N g -.                                                    ",
"                                                                  F.l B ' -.                                                    ",
"                                                                } k {  .] O.                                                    ",
"                                                F.}  .      U.l B O.{ { O.{ B ] :.                                              ",
"                                            N.N 6 Y.       .g ] { {  .o.O.o.o.o.' v o.S.                                        ",
"                                        N.C 8 B         6 l O. .{ { o.O.O.O.o.=.o.=.o.U ' A.                                    ",
"                                      V l V ] } Y.      m.x ' O.o. .O.o.o.=.O.O.o.o.@.o.o.U o.                                  ",
"                                  N.9 V | ] | | k V         ' l O.=.o.O.O.=.O.O.=.o.=.=.@.=.X.I P.                              ",
"                                | 9 | | | | ] |  .B 7 U.      S.z ' =.O.@.o.U X.=.=.=.=.@.@.,.@.U @.                            ",
"                              ..8 | | ] ] | | O.B l ' -.          ' v =.o.=.~.@.c X.=.=.@.@.*.@.*.U ,.                          ",
"                            | 8 | | | ] | O.' k O.{.                <.z ' <.    >X>.I +.,.@.>.@.,.,.U ;.                        ",
"                          m.9 | | | ] | O.l N {.                      [.z [         >XY U ,.>.>.*.>.,.U 5.                      ",
"                        {.6 | | | | | O.g  .                              D.            <.I ,.*.,.,.&.&.R P.                    ",
"                        9 V | | | |  .8 M.                                                <.I ,.&.&.&.&.%.+.                    ",
"                      -.9 | | | ]  .k -.       X|.}.|.|.|.|._.).).).(._.).                  L.I 4.&.,.&.,.+.4.                  ",
"                      0 | | | |  .g M.      $ # @ @ @ @ @ + + + + O O O O O + >               4.T 4.&.&.3.&.R                   ",
"                    | C | ] ] { x }         = b                             u + . G.            +.+.4.3.&.u.%.&.                ",
"                    8 | | ] ] ] 8           * H                                 # X               T 3.&.u.3.4.R                 ",
"                  m.l | { | O.8 U.          * A               c.                  @ @             Q.R u.4.3.^ ( L.              ",
"                  N } ] ] | ] N             * F           /.$ o G.                G..               +.3.3.%.*X3.(               ",
"                Y.l | ] ] o.8 !.            < A         ; + -                       + u             &X^ R *X    j 2X            ",
"                m.l | ]  .] x               < v.    S @ $ /.                        @ y               P e.      %.3.            ",
"                } ] ]  .{ ] =.              2 H '.$ # v.                            O x.              2.          (             ",
"        : 8 e N ] O.{ | { O.o.B 3 >X        m < $ b               n + C.          V.o                       3.    2X<X          ",
"        Y.0 | | ] ] { { {  .O.h S.          < 5               v.# # * @           + %                     E.P i.                ",
"          ..9  .| ] O.{ { O.B B                           `.$ @ n     # ,       # O                       / t.) <X              ",
"            8 ' O.] { { O.O.h                           2 @ 5         XX@ z.C.@ +                       ` w.i.t.)               ",
"            {.8  .{ { { O.k ~.                      A $ * '.            ; $ $ y                       $X) i.t.p.1.i.            ",
"               .x O. .=.U '                     `.* $ F               r $ $ =                         W p.t.p.t.h.) &X          ",
"                l '  .{ w                     d & d               v.# # '.Z.@ V.                    _ w.p.p.p.p.p.y.1.          ",
"                ].8 =.k U.                  i i .X            K.& # Z       t O                   R.) h.p.p.a.p.p.h.7.k.        ",
"                  A.7 {                     i G             < # 5             # #               3XW h.p.p.p.d.a.h.h.d.7.+X      ",
"                    k     5XU.              p G         m $ <       b.          O t             ~ 6.7.a.h.a.a.d.a.d.9.7.Q       ",
"                          c ,.              p K       M * J.        & $         S o XX          T.@X  k.y.a.d.d.d.d.=X  =X      ",
"                M.      U.h '               a K       F p             @ r         $ @                 a.y.h.d.d.y.k.            ",
"                M.U.    q @.h ,X            a K       G p             n.+ `.        + >             4X! h.d.d.d.9.%X            ",
"                  z   :.' =.X.@.            a K       G p               4 #         /.O Z.          h.y.d.f.h.h.9.              ",
"                  O.h o.=.=.=.z ,X          a J       G p                 # 4         > @         4X) f.d.f.f.s.j.              ",
"                  [.h O.@.@.@.X.Y           a f a i i i p                 K.# & * & - * @ #       1.s.d.j.d.f.8.3X              ",
"                    ' X.@.@.>.,.I I.        H.H.L L H G J.                  V.n n Z Z D S >     OX6.j.h.j.f.f.q.                ",
"                    [.z =.@.=.*.,.c !.                                                        :X6.f.f.f.f.j.9.:X                ",
"                      o.X.@.@.@.=.@.T                                                         ! d.j.f.f.f.s.f.                  ",
"                        I @.@.,.@.,.$.E !.                                                1X9.d.j.f.f.f.f.q.                    ",
"                        <.U *.,.>.,.,.*.E !.          Q.                                :X6.s.j.f.f.l.l.q.OX                    ",
"                          o.X.>.,.*.*.,.%.E g.        u./                             k.8.d.j.f.f.f.l.s.s.                      ",
"                            I X.,.,.&.,.4.,.#.%.T.    ^.` _ g.                    $X9.9.h.j.f.f.s.OXs.9.                        ",
"                              E #.,.&.&.,.e.u.%.#.%.T.g.3.t._ t.              #Xy.7.d.j.d.f.f.f.OXs.s.                          ",
"                                Y +.,.,.&.3.3.3.u.e.%.e.t.t.i.2._ R.      $X~ 6.a.h.d.f.f.f.f.j.q.8.                            ",
"                                  *.^ &.4.,.3.4.3.u.e.e.e.t.t.i.t.7.y.        r.7.d.d.f.f.j.f.q.f.                              ",
"                                    D.^ #.4.4.e.u.4.e.e.u.t.i.t.i.i.w.1.=X      %Xd.d.f.f.s.s.#X                                ",
"                                        4.^ %.4.u.e.e.i.t.t.e.i.i.i.h.r.Q $X      h.d.s.q.f.                                    ",
"                                            4.( _ 3.e.i.t.t.t.t.i.p.7.w.        d.9.9.j.                                        ",
"                                                L.3.( 3.i.i.t.i.y.) k.      ;XQ 9.#X                                            ",
"                                                      i.3.t.i.w.2.-X      :Xk.                                                  ",
"                                                      R.1.e._ i.                                                                ",
"                                                      R.) _ &X                                                                  ",
"                                                      t.%.                                                                      ",
"                                                      *X                                                                        ",
"                                                                                                                                "
};
