/* XPM */
static char *d1a52f876ba544caa482de4d94b596327uAQ9IsDWB6UizDl[] = {
/* columns rows colors chars-per-pixel */
"16 16 69 1 ",
"  c None",
". c #00136E",
"X c #011C73",
"o c #171774",
"O c #052377",
"+ c #002679",
"@ c #002C7D",
"# c #002C7E",
"$ c #042F7F",
"% c #0B2979",
"& c #122B7C",
"* c #162F7E",
"= c #002E80",
"- c #133381",
"; c #193884",
": c #1D3985",
"> c #3E3D9F",
", c #0A428B",
"< c #1A428C",
"1 c #114E93",
"2 c #00599C",
"3 c #005D9E",
"4 c #125F9F",
"5 c #1B5B9B",
"6 c #1D5B9B",
"7 c #1A5E9D",
"8 c #244A8F",
"9 c #314D93",
"0 c #395793",
"q c #3D5796",
"w c #345899",
"e c #3E5A98",
"r c #1D619F",
"t c #0563A1",
"y c #1E62A0",
"u c #316DA4",
"i c #336FA5",
"p c #2674AC",
"a c #397EAF",
"s c #367BB0",
"d c #425C9A",
"f c #5D5391",
"g c #45639D",
"h c #56689E",
"j c #5F5FA7",
"k c #466BA3",
"l c #456EA4",
"z c #4E6DA5",
"x c #566BA2",
"c c #5869A1",
"v c #4572A6",
"b c #4472A7",
"n c #4879AD",
"m c #5E7AAB",
"M c #5D7EAE",
"N c #597EB1",
"B c #6462A4",
"V c #6F6BA3",
"C c #6B7AAF",
"Z c #6F7DAC",
"A c #3880AF",
"S c #3B83B2",
"D c #4883B1",
"F c #5283B2",
"G c #7380AF",
"H c #618BB9",
"J c #648DB8",
"K c #6192BE",
"L c #66A2C4",
/* pixels */
"                ",
"         h      ",
"        :;e     ",
"    GX9 08<$z   ",
"   Z.q   x N#k  ",
"   &d       H#  ",
"  cO         nJ ",
" C*-            ",
"  %g     oV  i7 ",
"        j    y4D",
"   w  >   Bf ps ",
"   +l       Kt  ",
"   m=b     L3S  ",
"    M,16i a2A   ",
"      b5r       ",
"       F        "
};
