/* XPM */
static char *c2f97aed83094a53c83869fb4f76304aNWvSEA9d0RYCI39o[] = {
/* columns rows colors chars-per-pixel */
"32 32 157 2 ",
"   c None",
".  c #00004C",
"X  c #04045E",
"o  c #000061",
"O  c #0C0C68",
"+  c #190F64",
"@  c #00186E",
"#  c #13136B",
"$  c #1C1C6B",
"%  c #070773",
"&  c #06057E",
"*  c #0C0C79",
"=  c #011F74",
"-  c #121375",
";  c #1C1A74",
":  c #241F75",
">  c #0E2678",
",  c #0C2B7C",
"<  c #142D7D",
"1  c #1A307F",
"2  c #26256D",
"3  c #2A2A6F",
"4  c #312E6B",
"5  c #26267F",
"6  c #1D1D84",
"7  c #1E1E88",
"8  c #0C3481",
"9  c #153482",
"0  c #1C3683",
"q  c #183984",
"w  c #103F88",
"e  c #272783",
"r  c #2C2C83",
"t  c #29258A",
"y  c #2B2B8E",
"u  c #233783",
"i  c #203D86",
"p  c #253F88",
"a  c #303181",
"s  c #393781",
"d  c #3E3C86",
"f  c #32328D",
"g  c #3A3A8C",
"h  c #2D2B96",
"j  c #353597",
"k  c #32339A",
"l  c #3A3999",
"z  c #403D85",
"x  c #413FAB",
"c  c #15438B",
"v  c #1B438B",
"b  c #1B488F",
"n  c #054E93",
"m  c #164C91",
"M  c #1A4D92",
"N  c #0D5397",
"B  c #0F5A9C",
"V  c #1F5195",
"C  c #1E5699",
"Z  c #145A9B",
"A  c #1B5D9D",
"S  c #24418A",
"D  c #2A438B",
"F  c #25488F",
"G  c #2B498F",
"H  c #3F408E",
"J  c #344B8F",
"K  c #254D91",
"L  c #2C4D91",
"P  c #324D91",
"I  c #255295",
"U  c #2E5597",
"Y  c #235A9A",
"T  c #2B5B9A",
"R  c #325394",
"E  c #395497",
"W  c #3C5A97",
"Q  c #325D9B",
"!  c #12619F",
"~  c #23609D",
"^  c #2B619F",
"/  c #37649E",
"(  c #3C629D",
")  c #1664A1",
"_  c #146BA4",
"`  c #1B6AA5",
"'  c #1C6FA8",
"]  c #2566A2",
"[  c #2A64A0",
"{  c #226BA5",
"}  c #2C6AA4",
"|  c #246EA8",
" . c #3567A2",
".. c #3C67A1",
"X. c #336BA3",
"o. c #396CA4",
"O. c #2C71A6",
"+. c #2573AA",
"@. c #2B74AB",
"#. c #2E79AE",
"$. c #3771A3",
"%. c #3272A9",
"&. c #357AAF",
"*. c #377BB0",
"=. c #424084",
"-. c #4A4A81",
";. c #434389",
":. c #4A4C8C",
">. c #474791",
",. c #4B4D96",
"<. c #49499A",
"1. c #425494",
"2. c #455B99",
"3. c #4C5E99",
"4. c #595892",
"5. c #50519D",
"6. c #44629F",
"7. c #4B629C",
"8. c #52629C",
"9. c #64659D",
"0. c #4A4AAA",
"q. c #5A57AD",
"w. c #4E6DA4",
"e. c #5767A2",
"r. c #516CA3",
"t. c #596CA4",
"y. c #4677A9",
"u. c #437BAE",
"i. c #487CAD",
"p. c #5A73A7",
"a. c #507BAD",
"s. c #5F78AC",
"d. c #4D7DB1",
"f. c #6767A9",
"g. c #6A78AC",
"h. c #7475AF",
"j. c #6C6DB0",
"k. c #787AB7",
"l. c #4382B2",
"z. c #4C85B3",
"x. c #4589B5",
"c. c #4C89B6",
"v. c #5683B1",
"b. c #5B80B1",
"n. c #538AB3",
"m. c #5B92BC",
"M. c #7181AE",
"N. c #6F86B4",
"B. c #738BB7",
"V. c #788FBB",
"C. c #6E91BC",
"Z. c #7C91BA",
"A. c #639EC2",
"S. c #699CC1",
"D. c #72A1C8",
"F. c #7BB3D2",
"G. c #819EC5",
/* pixels */
"                                                                ",
"                                                                ",
"                                                                ",
"                                  2.<                           ",
"                                D 9 G 7.                        ",
"                      J 8.  t., p P G S v R r.                  ",
"                  8.< < 7.    D q L R F G L v U                 ",
"                3.1 D S > S     r.9 G 6.F v R K v               ",
"              1.< J 0 u N.          v     6.c R I b             ",
"            M.> J 1 D                       b.w U I I           ",
"            u p 0 E     d ;.;.=.s z =.4       C.c T M v.        ",
"          8.1 D 0     X 5.            -..       i.m T m         ",
"          D p < Z.    ;       H           3       Y Y C a.      ",
"          < S J       r     ; :.          3       d.a.  o.      ",
"    g.e.1.p D R r.    - * r       z       $                     ",
"      @ u P P , p.            H e # h.  X 9.          n         ",
"        , P q W           k.- >.    X $ 4.          ~ N u.      ",
"        2., 0           l 6       g $ O           z.Z %.Z       ",
"          , s.        * 0.    <.-     ,.>.      D.n %.%.| )     ",
"              V.      6     y j   f.    o       $.%.@.%.O.O.n.  ",
"            B.8       7     j     j.%     ;         ) | *.      ",
"          R R 8 G.    &     k       y g   r 2     *.{ ` m.      ",
"          7.8 K K     t 0.h q.        e 5 d +   F.) #.'         ",
"            v U b ..                            _ @.' x.        ",
"            w.c Q c /                         ' +.@.+.          ",
"              R b Q K T     T             c.` @.#._             ",
"                Q M Q Y Y o.[ A i.    l.) ` #.@._ A.            ",
"                  / M Y [ ^ } } ) %.    u.+.' @.                ",
"                      o.C Y } X.[ B m.  c.` x.                  ",
"                          y.} A }     S.c.                      ",
"                            A X.                                ",
"                            v.                                  "
};
